<?xml version="1.0" standalone="no"?>
<!DOCTYPE svg PUBLIC "-//W3C//DTD SVG 20010904//EN"
 "http://www.w3.org/TR/2001/REC-SVG-20010904/DTD/svg10.dtd">
<svg version="1.0" xmlns="http://www.w3.org/2000/svg"
 width="375.000000pt" height="225.000000pt" viewBox="0 0 375.000000 225.000000"
 preserveAspectRatio="xMidYMid meet">

<g transform="translate(0.000000,225.000000) scale(0.100000,-0.100000)"
fill="#000000" stroke="none">
<path d="M170 1449 c-32 -13 -68 -47 -86 -81 -9 -17 -14 -58 -14 -111 0 -101
20 -139 90 -174 41 -21 58 -23 211 -23 l167 0 26 -31 c29 -34 32 -50 14 -82
-23 -45 -32 -46 -268 -47 l-225 0 3 -55 4 -55 277 0 c272 0 279 0 311 23 56
38 72 79 68 178 -3 75 -6 90 -30 121 -46 61 -75 68 -261 68 -163 0 -166 0
-196 26 -39 33 -41 74 -6 109 l24 25 226 0 225 0 0 60 0 60 -267 -1 c-153 0
-279 -5 -293 -10z"/>
<path d="M890 1188 c0 -257 1 -274 21 -316 39 -79 49 -82 324 -82 258 0 266 1
305 54 35 47 38 80 39 349 l1 267 -85 0 -85 0 0 -249 0 -249 -26 -31 -26 -31
-123 0 c-119 0 -123 1 -149 26 l-26 27 0 253 0 254 -85 0 -85 0 0 -272z"/>
<path d="M1820 1449 c-14 -6 -36 -20 -48 -32 -50 -47 -52 -57 -52 -352 l0
-275 80 0 80 0 0 246 0 246 29 29 c29 29 30 29 150 29 112 0 122 -2 148 -24
l28 -24 3 -251 3 -251 80 0 80 0 -3 284 c-3 269 -4 286 -24 312 -50 68 -53 69
-302 71 -137 1 -237 -2 -252 -8z"/>
<path d="M2626 1437 c-78 -44 -81 -55 -84 -369 l-3 -278 85 0 86 0 0 250 0
251 25 24 c24 25 25 25 230 25 122 0 214 -4 226 -10 44 -24 49 -55 49 -305 l0
-235 80 0 80 0 0 264 c0 274 -4 310 -44 355 -43 48 -64 51 -388 51 -295 0
-304 -1 -342 -23z"/>
<path d="M3540 1125 l0 -335 83 0 82 0 0 335 0 335 -82 0 -83 0 0 -335z"/>
<path d="M2890 995 l0 -205 80 0 80 0 0 205 0 205 -80 0 -80 0 0 -205z"/>
</g>
</svg>
